{"title":"The King's Speech (2011)(17-2 Bios)(DivX)(nl subs) NTSC TBS","uid":6126283,"size":1461480909,"categoryP":"video","categoryS":"movies","magnet":"?xt=urn:btih:19ce1c80c72fe15991a6e09c5bcffbd99fe59fdf&amp;dn=The+King%5C%27s+Speech+%282011%29%2817-2+Bios%29%28DivX%29%28nl+subs%29+NTSC+TBS&amp;tr=udp%3A%2F%2Ftracker.openbittorrent.com%3A80&amp;tr=udp%3A%2F%2Fopen.demonii.com%3A1337&amp;tr=udp%3A%2F%2Ftracker.coppersurfer.tk%3A6969&amp;tr=udp%3A%2F%2Fexodus.desync.com%3A6969","seeders":4,"leechers":0,"uploader":"BlackSam.","files":-1,"time":1295952039,"description":"The King's Speech (2011)(17-2 Bios)(DivX)(nl subs) NTSC TBS\n\n*****Vanaf 17 februari in de bioscoop*****\n\n\nVerenigd Koninkrijk / AustraliÃƒÂ«\nDrama\n118 minuten\n\ngeregisseerd door Tom Hooper\nmet Colin Firth, Helena Bonham Carter en Geoffrey Rush\n\nNadat zijn broer aftreedt wordt George nogal ongewild de nieuwe Koning van Engeland en gaat door het leven als George VI. Helaas heeft hij een probleem met \nzijn trillende stembanden, wat niet echt Koninklijk overkomt. Hiervoor schakelt hij de hulp in van de onorthodoxe spraaktherapeut Lionel Logue wat resulteert \nin een reeks ongewone technieken en een bijzondere vriendschap.\n\nStoryline\n\nTells the story of the man who became King George VI, the father of Queen Elizabeth II. After his brother abdicates, George ('Bertie') reluctantly assumes \nthe throne. Plagued by a dreaded stammer and considered unfit to be king, Bertie engages the help of an unorthodox speech therapist named Lionel Logue. \nThrough a set of unexpected techniques, and as a result of an unlikely friendship, Bertie is able to find his voice and boldly lead the country through war.\n\nscreens:\n &lt;a href=&quot;\nhttp://bayimg.com/jAdDbAaDi&quot; rel=&quot;nofollow&quot; target=&quot;_NEW&quot;&gt;\nhttp://bayimg.com/jAdDbAaDi&lt;/a&gt;\n &lt;a href=&quot;\nhttp://bayimg.com/JaddDAadi&quot; rel=&quot;nofollow&quot; target=&quot;_NEW&quot;&gt;\nhttp://bayimg.com/JaddDAadi&lt;/a&gt;\n &lt;a href=&quot;\nhttp://bayimg.com/JadDeaaDi&quot; rel=&quot;nofollow&quot; target=&quot;_NEW&quot;&gt;\nhttp://bayimg.com/JadDeaaDi&lt;/a&gt;\n\n\nInfo\n\nThe Kings Speech 2010 DVDSCR XviD AC3-NYDIC\nSource: DVDR\nGENRE: Drama / History\nSIZE 1.36GB\nVideo: 1184 kbps XviD \nAUDiO: 448 kbps AC3 -5.1\nRESOLUTION: 720 x 304 \nRUNTiME: 1hr 58mn \nLANGUAGE: ENGLiSH \nSUBTiTLES: Dutch srt\nCategorie : Beeld \nFormaat : DivX \nCover : Yes\nSubs Dutch (lossles) \nOndertitels : Nederlands (extern)\nThanks : Hannes3\n\nGeneral\n\nFormat                           : AVI\nFormat/Info                      : Audio Video Interleave\nFile size                        : 1.36 GiB\nDuration                         : 1h 58mn\nOverall bit rate                 : 1 644 Kbps\nWriting library                  : VirtualDub build 32706/release\n\nVideo\nID                               : 0\nFormat                           : MPEG-4 Visual\nFormat profile                   : Advanced Simple@L5\nFormat settings, BVOP            : Yes\nFormat settings, QPel            : No\nFormat settings, GMC             : No warppoints\nFormat settings, Matrix          : Default (H.263)\nMuxing mode                      : Packed bitstream\nCodec ID                         : XVID\nCodec ID/Hint                    : XviD\nDuration                         : 1h 58mn\nBit rate                         : 1 184 Kbps\nWidth                            : 720 pixels\nHeight                           : 400 pixels\nDisplay aspect ratio             : 16:9\nFrame rate                       : 29.970 fps\nColor space                      : YUV\nChroma subsampling               : 4:2:0\nBit depth                        : 8 bits\nScan type                        : Progressive\nBits/(Pixel*Frame)               : 0.137\nStream size                      : 1 004 MiB (72%)\nWriting library                  : XviD 1.2.1 (UTC 2008-12-04)\n\nAudio\nID                               : 1\nFormat                           : AC-3\nFormat/Info                      : Audio Coding 3\nMode extension                   : CM (complete main)\nCodec ID                         : 2000\nDuration                         : 1h 58mn\nBit rate mode                    : Constant\nBit rate                         : 448 Kbps\nChannel(s)                       : 6 channels\nChannel positions                : Front: L C R, Side: L R, LFE\nSampling rate                    : 48.0 KHz\nBit depth                        : 16 bits\nStream size                      : 380 MiB (27%)\nAlignment                        : Aligned on interleaves\nInterleave, duration             : 33 ms (1.00 video frame)\nInterleave, preload duration     : 512 ms\n  \n \n &lt;a href=&quot;\nhttp://www.moviemeter.nl/film/66831&quot; rel=&quot;nofollow&quot; target=&quot;_NEW&quot;&gt;\nhttp://www.moviemeter.nl/film/66831&lt;/a&gt;   &lt;a href=&quot;\nhttp://www.imdb.com/title/tt1504320&quot; rel=&quot;nofollow&quot; target=&quot;_NEW&quot;&gt;\nhttp://www.imdb.com/title/tt1504320&lt;/a&gt; \n\n\nBlack-Sam","torrent":{"xt":"urn:btih:19ce1c80c72fe15991a6e09c5bcffbd99fe59fdf","amp;dn":"The+King%5C%27s+Speech+%282011%29%2817-2+Bios%29%28DivX%29%28nl+subs%29+NTSC+TBS","amp;tr":["udp%3A%2F%2Ftracker.openbittorrent.com%3A80","udp%3A%2F%2Fopen.demonii.com%3A1337","udp%3A%2F%2Ftracker.coppersurfer.tk%3A6969","udp%3A%2F%2Fexodus.desync.com%3A6969"],"infoHash":"19ce1c80c72fe15991a6e09c5bcffbd99fe59fdf","infoHashBuffer":{"type":"Buffer","data":[25,206,28,128,199,47,225,89,145,166,224,156,91,207,251,217,159,229,159,223]},"announce":[],"urlList":[]}}